<svg width="33" height="33" viewBox="0 0 33 33" fill="none" xmlns="http://www.w3.org/2000/svg">
<g clip-path="url(#clip0_30_1142)">
<path d="M15.9265 0.592773C15.6914 0.592773 15.5134 0.594507 15.4486 0.601707C15.3798 0.608773 15.1608 0.629707 14.9638 0.64544C10.4188 1.05517 6.16157 3.50717 3.46517 7.27584C1.9637 9.37144 1.00343 11.7482 0.640765 14.2661C0.512498 15.1448 0.496765 15.4044 0.496765 16.596C0.496765 17.7876 0.512765 18.0472 0.640765 18.9261C1.5101 24.9341 5.78623 29.982 11.5857 31.8521C12.6242 32.1869 13.719 32.4152 14.964 32.5528C15.4488 32.6061 17.5445 32.6061 18.0293 32.5528C20.1782 32.315 21.9989 31.7834 23.7942 30.867C24.0696 30.7262 24.1228 30.6888 24.0853 30.6573C24.0602 30.6388 22.887 29.0656 21.4796 27.164L18.9209 23.708L15.7146 18.9636C13.9505 16.355 12.499 14.2222 12.4865 14.2222C12.474 14.2188 12.4616 16.3272 12.4552 18.9009C12.4462 23.4078 12.4428 23.5892 12.3864 23.6956C12.305 23.8489 12.2424 23.9113 12.1112 23.9801C12.0112 24.03 11.9234 24.0394 11.4512 24.0394H10.9098L10.7661 23.9488C10.677 23.8929 10.6046 23.8141 10.5565 23.7205L10.4908 23.5797L10.4978 17.309L10.5068 11.0352L10.6036 10.9132C10.6537 10.8474 10.7601 10.7632 10.835 10.7225C10.9633 10.6598 11.0134 10.6536 11.5545 10.6536C12.1928 10.6536 12.299 10.6785 12.4648 10.8598C12.5118 10.9101 14.2478 13.5248 16.3248 16.6742C18.4277 19.862 20.5318 23.0489 22.6373 26.235L25.1709 30.0726L25.2989 29.9882C26.4346 29.2501 27.6356 28.1992 28.5865 27.1046C30.6104 24.7808 31.9149 21.9473 32.3528 18.926C32.4809 18.0472 32.4965 17.7873 32.4965 16.596C32.4965 15.4044 32.4805 15.1448 32.3528 14.2658C31.4832 8.25784 27.2072 3.20997 21.4078 1.33984C20.3849 1.00824 19.2964 0.77984 18.0765 0.64224C17.8512 0.618773 16.6316 0.593307 15.9265 0.592773ZM21.3512 10.2154C21.8142 10.2154 21.8954 10.2225 21.9988 10.2781C22.149 10.353 22.2708 10.497 22.3148 10.647C22.3396 10.7284 22.346 12.4674 22.3396 16.3862L22.3306 22.0096L21.3392 20.4896L20.3444 18.9696V14.8816C20.3444 12.2389 20.3568 10.7532 20.3756 10.6813C20.4256 10.5062 20.535 10.3685 20.6853 10.2873C20.8134 10.2214 20.86 10.2154 21.3512 10.2154Z" fill="white"/>
</g>
<defs>
<clipPath id="clip0_30_1142">
<rect width="32" height="32" fill="white" transform="translate(0.496765 0.592773)"/>
</clipPath>
</defs>
</svg>
