<svg width="33" height="33" viewBox="0 0 33 33" fill="none" xmlns="http://www.w3.org/2000/svg">
<path d="M16.5 19.0513C17.9239 19.0513 19.0781 17.897 19.0781 16.4731C19.0781 15.0493 17.9239 13.895 16.5 13.895C15.0761 13.895 13.9219 15.0493 13.9219 16.4731C13.9219 17.897 15.0761 19.0513 16.5 19.0513Z" fill="#00D8FF"/>
<path d="M16.5 22.3838C13.4012 22.4588 10.3102 22.0411 7.3425 21.1463C5.97158 20.7117 4.69295 20.0271 3.57122 19.1271C3.14318 18.8197 2.78672 18.4233 2.5263 17.9651C2.26588 17.5069 2.10766 16.9978 2.0625 16.4727C2.0625 14.768 3.93525 13.0974 7.07231 12.0043C10.1194 11.0357 13.303 10.5663 16.5 10.6142C19.6543 10.5701 22.7953 11.0311 25.8039 11.9795C27.1242 12.4005 28.3595 13.052 29.4525 13.9039C29.8732 14.197 30.2243 14.579 30.481 15.023C30.7376 15.4669 30.8934 15.9618 30.9375 16.4727C30.9375 18.2444 28.8441 20.0398 25.4719 21.1556C22.5616 22.0212 19.5358 22.4354 16.5 22.3838ZM16.5 11.8475C13.4414 11.8067 10.3959 12.2529 7.47759 13.1696C4.59009 14.1771 3.29588 15.5549 3.29588 16.4696C3.29588 17.4266 4.68703 18.9312 7.74159 19.9759C10.5807 20.8275 13.5368 21.224 16.5 21.1505C19.4044 21.2024 22.2997 20.8094 25.0852 19.9851C28.2563 18.9343 29.7 17.4276 29.7 16.4727C29.648 16.145 29.5285 15.8316 29.3493 15.5524C29.17 15.2732 28.9348 15.0342 28.6584 14.8505C27.6806 14.0948 26.5771 13.5174 25.3987 13.1449C22.5205 12.2412 19.5164 11.8033 16.5 11.8475Z" fill="#00D8FF"/>
<path d="M10.6425 29.3315C10.1614 29.3425 9.68603 29.2258 9.26476 28.9932C7.78801 28.1414 7.27651 25.685 7.89629 22.4211C8.57964 19.2975 9.76368 16.3051 11.4025 13.5596C12.9399 10.8052 14.9079 8.31453 17.2322 6.182C18.2564 5.24841 19.4379 4.50368 20.7219 3.98234C21.1864 3.76468 21.693 3.65186 22.2059 3.65186C22.7188 3.65186 23.2255 3.76468 23.6899 3.98234C25.2254 4.86715 25.7338 7.57728 25.0171 11.0557C24.3126 14.0098 23.1594 16.8384 21.5975 19.4428C20.1143 22.1647 18.2081 24.6337 15.9504 26.7575C14.889 27.7277 13.6572 28.493 12.3173 29.0149C11.7808 29.214 11.2146 29.321 10.6425 29.3315ZM12.4709 14.1721C10.9076 16.8011 9.77282 19.6622 9.10904 22.648C8.53876 25.6541 9.08635 27.4618 9.88248 27.9218C10.7075 28.3992 12.7102 27.9465 15.1419 25.8222C17.2972 23.7874 19.1165 21.4241 20.5322 18.82C22.0285 16.33 23.1348 13.6257 23.8126 10.801C24.487 7.52675 23.9044 5.522 23.0773 5.04556C22.7673 4.92679 22.4361 4.87362 22.1045 4.88942C21.7729 4.90521 21.4482 4.98963 21.1509 5.13734C20.008 5.60898 18.9572 6.27855 18.0469 7.11528C15.8263 9.15796 13.9463 11.5424 12.4781 14.1783L12.4709 14.1721Z" fill="#00D8FF"/>
<path d="M22.3544 29.3448C20.9571 29.3448 19.1823 28.4992 17.3343 26.91C14.9693 24.7581 12.9679 22.2378 11.4077 19.4469C9.78938 16.7392 8.61472 13.79 7.92825 10.7111C7.63054 9.35658 7.57537 7.95997 7.76531 6.58614C7.80923 6.07651 7.96441 5.58271 8.21992 5.13957C8.47543 4.69643 8.82505 4.31475 9.24413 4.02143C10.7776 3.13352 13.3794 4.04618 16.0349 6.40361C18.2424 8.48899 20.117 10.9006 21.5933 13.5543C23.2106 16.1988 24.3976 19.0834 25.1099 22.1003C25.4204 23.5045 25.4683 24.9541 25.2512 26.3758C25.1995 26.9001 25.0351 27.407 24.7692 27.8618C24.5032 28.3166 24.1421 28.7085 23.7105 29.0107C23.2961 29.2404 22.8281 29.3557 22.3544 29.3448ZM12.475 18.826C13.9718 21.4933 15.8836 23.9053 18.1387 25.9716C20.4579 27.967 22.2977 28.396 23.0887 27.931C23.9137 27.4514 24.5221 25.4941 23.8951 22.3271C23.2082 19.4468 22.0697 16.6933 20.5219 14.1689C19.113 11.6291 17.3237 9.31984 15.2161 7.32143C12.7163 5.10218 10.6889 4.60614 9.86288 5.08464C9.60542 5.29387 9.39414 5.5542 9.24238 5.8492C9.09062 6.1442 9.00167 6.46747 8.98116 6.79858C8.81719 8.0238 8.87061 9.26833 9.13894 10.475C9.79925 13.4193 10.9258 16.2393 12.4761 18.8281L12.475 18.826Z" fill="#00D8FF"/>
</svg>
