<svg width="32" height="31" viewBox="0 0 32 31" fill="none" xmlns="http://www.w3.org/2000/svg">
<g clip-path="url(#clip0_30_1119)">
<path d="M9.44762 17.6793C9.65946 17.5581 9.932 17.6338 10.053 17.8508L10.1338 17.9871C10.7544 19.0869 11.4002 20.1314 12.0713 21.1204C12.8634 22.2859 13.7565 23.4666 14.7506 24.6623C14.8262 24.7522 14.8634 24.8683 14.8539 24.9855C14.8445 25.1026 14.7892 25.2113 14.7001 25.2879L14.6042 25.3737C11.3195 28.2447 9.19032 28.8147 8.20633 27.0942C7.24275 25.4091 7.59085 22.3515 9.25077 17.9114C9.28699 17.8132 9.35671 17.731 9.44762 17.6793ZM23.4238 21.0548C23.661 21.0143 23.8881 21.1659 23.9334 21.4029L23.9587 21.5341C24.7711 25.7774 24.2009 27.9016 22.2482 27.9016C20.336 27.9016 17.9091 26.0902 14.9523 22.4725C14.8859 22.3918 14.8518 22.2894 14.8565 22.185C14.8565 21.9428 15.0582 21.7459 15.3004 21.7459H15.4568C16.6673 21.7555 17.8777 21.7134 19.0846 21.6199C20.4671 21.5088 21.9152 21.3221 23.4238 21.0548ZM24.5489 12.0433C24.5902 11.9318 24.6736 11.8409 24.7811 11.7899C24.8886 11.739 25.0117 11.7321 25.1242 11.7708L25.2554 11.8163C29.4685 13.2492 31.073 14.8284 30.0587 16.549C29.0698 18.2343 26.1938 19.4605 21.4258 20.2273C21.3198 20.2424 21.2088 20.2222 21.118 20.1666C20.901 20.0406 20.8254 19.7681 20.9565 19.5511L21.0372 19.415C21.6882 18.3251 22.2734 17.2403 22.8032 16.1555C23.4188 14.8789 24.0039 13.5065 24.5489 12.0433ZM10.5679 10.7718C10.6738 10.7567 10.7849 10.777 10.8757 10.8325C11.0927 10.9586 11.1683 11.231 11.0371 11.448L10.9564 11.5841C10.3223 12.6454 9.73309 13.7328 9.19045 14.8437C8.57484 16.1202 7.98959 17.4926 7.44464 18.9558C7.40328 19.0673 7.31998 19.1582 7.21251 19.2091C7.10505 19.2601 6.98194 19.267 6.86946 19.2284L6.73822 19.1829C2.52519 17.7499 0.920686 16.1707 1.9349 14.4501C2.9238 12.7649 5.79983 11.5387 10.5679 10.7718ZM17.3894 5.62542C20.6741 2.75444 22.8033 2.18442 23.7873 3.90492C24.7509 5.59003 24.4028 8.64767 22.7429 13.0878C22.7067 13.1859 22.6369 13.2681 22.546 13.3199C22.3342 13.441 22.0617 13.3653 21.9406 13.1483L21.8599 13.0121C21.2392 11.9122 20.5934 10.8678 19.9224 9.87875C19.1302 8.71328 18.2372 7.53257 17.2431 6.33687C17.1674 6.24694 17.1303 6.1308 17.1397 6.01365C17.1492 5.89651 17.2045 5.78782 17.2936 5.71119L17.3894 5.62542ZM9.90681 2.93617C11.8191 2.93617 14.2511 4.74748 17.2028 8.36505C17.2677 8.44496 17.3033 8.5447 17.3037 8.64767C17.2986 8.89489 17.1019 9.09174 16.8547 9.09174L16.7033 9.08657C15.4928 9.08114 14.2825 9.12492 13.0755 9.21781C11.688 9.32889 10.2399 9.51554 8.73127 9.78291C8.61702 9.80239 8.49968 9.77633 8.40442 9.71032C8.30917 9.6443 8.24357 9.54358 8.2217 9.42977L8.19639 9.30357C7.38393 5.06032 7.95407 2.93617 9.90681 2.93617ZM13.6153 10.4439H18.3783C18.5223 10.4439 18.6637 10.4817 18.7885 10.5534C18.9134 10.6251 19.0172 10.7282 19.0898 10.8525L21.4764 15.0102C21.5459 15.1343 21.5824 15.2741 21.5824 15.4163C21.5824 15.5585 21.5459 15.6984 21.4764 15.8225L19.0898 19.9851C19.0172 20.1094 18.9134 20.2126 18.7886 20.2843C18.6638 20.356 18.5224 20.3938 18.3785 20.3938H13.6154C13.3228 20.3938 13.0503 20.2374 12.9089 19.9851L10.5174 15.8225C10.4479 15.6984 10.4114 15.5585 10.4114 15.4163C10.4114 15.274 10.4479 15.1341 10.5174 15.01L12.909 10.8525C13.0502 10.6003 13.3228 10.4439 13.6153 10.4439ZM17.788 11.4681C17.932 11.4682 18.0734 11.506 18.1982 11.5777C18.3231 11.6494 18.4269 11.7525 18.4995 11.8768L20.2957 15.0102C20.3652 15.1343 20.4016 15.2741 20.4016 15.4163C20.4016 15.5585 20.3652 15.6984 20.2957 15.8225L18.4995 18.9608C18.4269 19.0852 18.3231 19.1883 18.1982 19.26C18.0734 19.3317 17.932 19.3695 17.788 19.3695H14.2057C13.913 19.3695 13.6406 19.2131 13.4993 18.9608L11.6981 15.8225C11.6286 15.6984 11.5921 15.5585 11.5921 15.4163C11.5921 15.274 11.6286 15.1341 11.6981 15.01L13.4993 11.8768C13.6406 11.6246 13.913 11.4681 14.2057 11.4681H17.788ZM17.1523 12.5883H14.8415C14.5488 12.5883 14.2814 12.7397 14.135 12.997L12.9746 15.0102C12.9052 15.1343 12.8687 15.2741 12.8687 15.4163C12.8687 15.5585 12.9052 15.6984 12.9746 15.8225L14.1351 17.8407C14.2066 17.9649 14.3095 18.068 14.4335 18.1397C14.5575 18.2115 14.6982 18.2493 14.8415 18.2494H17.1523C17.2956 18.2493 17.4363 18.2115 17.5603 18.1398C17.6844 18.068 17.7873 17.9649 17.8588 17.8407L19.0191 15.8225C19.0886 15.6984 19.1251 15.5585 19.1251 15.4163C19.1251 15.274 19.0886 15.1341 19.0191 15.01L17.8587 12.997C17.7124 12.7397 17.445 12.5883 17.1523 12.5883ZM16.5368 13.6579C16.8294 13.6579 17.1019 13.8143 17.2431 14.0666L17.7882 15.0102C17.9344 15.2624 17.9344 15.5753 17.7882 15.8225L17.2431 16.7711C17.1019 17.0233 16.8294 17.1798 16.5368 17.1798H15.457C15.3137 17.1796 15.1731 17.1418 15.0491 17.0701C14.9251 16.9983 14.8222 16.8952 14.7507 16.7711L14.2056 15.8225C14.0594 15.5753 14.0594 15.2624 14.2056 15.01L14.7507 14.0666C14.8222 13.9425 14.9251 13.8394 15.0491 13.7676C15.1731 13.6959 15.3137 13.658 15.457 13.6579H16.5368ZM15.9969 14.7124C15.8731 14.7128 15.7516 14.7456 15.6445 14.8076C15.5373 14.8696 15.4483 14.9586 15.3863 15.0657C15.2603 15.2827 15.2603 15.5501 15.3863 15.772C15.4486 15.8785 15.5378 15.9667 15.645 16.0279C15.7521 16.089 15.8735 16.1208 15.9969 16.1202C16.1203 16.1208 16.2416 16.089 16.3488 16.0279C16.456 15.9667 16.5452 15.8785 16.6075 15.772C16.7335 15.5501 16.7335 15.2826 16.6075 15.0657C16.5454 14.9586 16.4564 14.8695 16.3493 14.8076C16.2421 14.7456 16.1207 14.7128 15.9969 14.7124ZM10.2853 15.4188H11.5517H10.2853ZM25.0132 10.01C25.5178 7.56292 25.6287 5.69091 25.3008 4.32872C25.1091 3.51626 24.7559 2.86035 24.216 2.38114C23.6459 1.87649 22.9244 1.62939 22.1171 1.62939C20.7799 1.62939 19.3773 2.23984 17.8787 3.39523C17.2683 3.86449 16.6325 4.43464 15.9766 5.09558C15.9211 5.02997 15.8655 4.96448 15.8 4.90894C13.9331 3.24889 12.3639 2.21969 11.0218 1.82108C10.2247 1.58393 9.47785 1.56365 8.79675 1.79072C8.07523 2.03291 7.49992 2.5324 7.0964 3.23377C6.43042 4.38917 6.25372 5.91295 6.50094 7.79C6.60195 8.55182 6.77852 9.3843 7.02071 10.2874C6.92641 10.2985 6.83344 10.3188 6.74313 10.3481C4.38209 11.135 2.7068 11.9725 1.69259 12.9363C1.09209 13.5064 0.698648 14.1472 0.552302 14.8486C0.405956 15.5953 0.552302 16.342 0.955948 17.0434C1.62193 18.1988 2.84798 19.1071 4.5938 19.8286C5.29517 20.1161 6.08722 20.3785 6.97524 20.6156C6.93372 20.7093 6.90325 20.8075 6.88444 20.9083C6.37991 23.3503 6.26896 25.2274 6.59691 26.5845C6.7886 27.397 7.14678 28.0579 7.68166 28.5321C8.2518 29.0368 8.97332 29.2838 9.78061 29.2838C11.1177 29.2838 12.5202 28.6734 14.019 27.523C14.6344 27.0437 15.2752 26.4685 15.9412 25.7974C16.0128 25.9051 16.0975 26.0034 16.1935 26.0901C18.0605 27.7501 19.6296 28.7793 20.9717 29.1779C21.769 29.4151 22.5157 29.4354 23.1968 29.2083C23.9183 28.9661 24.4936 28.4666 24.8971 27.7652C25.5632 26.6098 25.7398 25.0861 25.4926 23.2091C25.3867 22.417 25.2049 21.5541 24.9426 20.6106C25.0469 20.6007 25.15 20.5804 25.2504 20.5501C27.6116 19.763 29.2868 18.9255 30.3009 17.9616C30.9014 17.3916 31.295 16.7508 31.4412 16.0494C31.5876 15.3027 31.4412 14.5559 31.0376 13.8546C30.3716 12.6991 29.1455 11.7909 27.3997 11.0694C26.6782 10.7718 25.8558 10.4993 24.9375 10.2621C24.9726 10.1813 24.998 10.0968 25.0132 10.01Z" fill="#EF7834"/>
</g>
<defs>
<clipPath id="clip0_30_1119">
<rect width="31" height="31" fill="white" transform="translate(0.496765)"/>
</clipPath>
</defs>
</svg>
