<svg width="34" height="32" viewBox="0 0 34 32" fill="none" xmlns="http://www.w3.org/2000/svg">
<g clip-path="url(#clip0_30_1161)">
<path d="M23.0329 21.8603C24.2331 21.7361 25.1437 20.7014 25.1023 19.4597C25.0609 18.2179 24.0262 17.2246 22.7845 17.2246H22.7018C21.4187 17.266 20.4254 18.3421 20.4668 19.6252C20.5081 20.2461 20.7565 20.7842 21.129 21.1567C19.7218 23.9298 17.5695 25.958 14.3412 27.655C12.1476 28.8139 9.8712 29.2278 7.59481 28.9381C5.73231 28.6897 4.28369 27.8619 3.37314 26.496C2.04869 24.4679 1.92453 22.2742 3.04203 20.0805C3.82842 18.5077 5.07008 17.3487 5.85647 16.7693C5.69092 16.2312 5.44258 15.3206 5.31842 14.6584C-0.682974 19.0044 -0.0621411 24.8818 1.75897 27.655C3.1248 29.7245 5.89786 31.0076 8.96064 31.0076C9.78842 31.0076 10.6162 30.9248 11.444 30.7179C16.7418 29.6831 20.7565 26.5374 23.0329 21.8603ZM30.3173 16.7279C27.1718 13.0441 22.5362 11.016 17.2384 11.016H16.5762C16.2037 10.271 15.4173 9.7743 14.5481 9.7743H14.4654C13.1823 9.81569 12.189 10.8918 12.2304 12.1749C12.2718 13.4167 13.3065 14.41 14.5481 14.41H14.6309C15.5415 14.3686 16.3279 13.7892 16.659 13.0028H17.404C20.5495 13.0028 23.5295 13.9133 26.2198 15.6931C28.2893 17.059 29.7793 18.8388 30.607 20.9911C31.3107 22.7295 31.2693 24.4265 30.5243 25.8752C29.3654 28.0689 27.4201 29.2692 24.854 29.2692C23.1984 29.2692 21.6256 28.7725 20.7979 28.4C20.3426 28.8139 19.5148 29.4761 18.9354 29.89C20.7151 30.7179 22.5362 31.1731 24.2745 31.1731C28.2479 31.1731 31.1865 28.9795 32.304 26.7858C33.5043 24.3851 33.4215 20.2461 30.3173 16.7279ZM9.29175 22.5639C9.33314 23.8057 10.3679 24.799 11.6095 24.799H11.6923C12.9754 24.7576 13.9687 23.6815 13.9273 22.3984C13.8859 21.1567 12.8512 20.1633 11.6095 20.1633H11.5268C11.444 20.1633 11.3198 20.1633 11.237 20.2047C9.54009 17.3901 8.83647 14.3272 9.08481 11.016C9.25036 8.53259 10.0781 6.38029 11.5268 4.6005C12.727 3.06906 15.0448 2.32403 16.6176 2.28264C21.0048 2.19986 22.8673 7.66339 22.9915 9.85709C23.5295 9.98126 24.4401 10.271 25.0609 10.4779C24.5643 3.77269 20.4254 0.295898 16.452 0.295898C12.727 0.295898 9.29175 2.98628 7.92592 6.95976C6.02203 12.2577 7.2637 17.3488 9.58147 21.3636C9.37453 21.6534 9.25036 22.1086 9.29175 22.5639Z" fill="#764ABC"/>
</g>
<defs>
<clipPath id="clip0_30_1161">
<rect width="32.5246" height="31" fill="white" transform="translate(0.496765 0.295898)"/>
</clipPath>
</defs>
</svg>
