<svg width="33" height="20" viewBox="0 0 33 20" fill="none" xmlns="http://www.w3.org/2000/svg">
<g clip-path="url(#clip0_30_1112)">
<path d="M16.5679 0.296387C12.354 0.296387 9.75127 2.40333 8.63583 6.61722C10.247 4.51027 12.1061 3.76665 14.213 4.2624C15.4524 4.51027 16.196 5.37784 17.1875 6.36934C18.7987 7.98053 20.5339 9.8396 24.4999 9.8396C28.7138 9.8396 31.3165 7.73266 32.4319 3.51877C30.8207 5.62571 28.9616 6.36934 26.8547 5.87359C25.6153 5.50177 24.8717 4.63421 23.8802 3.64271C22.269 2.15545 20.5339 0.296387 16.5679 0.296387ZM8.63583 9.8396C4.42195 9.8396 1.81925 11.9465 0.703812 16.1604C2.315 14.0535 4.17407 13.3099 6.28101 13.8056C7.52039 14.0535 8.26402 14.921 9.25552 15.9126C10.8667 17.5237 12.6018 19.3828 16.5679 19.3828C20.7817 19.3828 23.3844 17.2759 24.4999 12.938C22.8887 15.045 21.0296 15.9126 18.9227 15.4168C17.6833 15.045 16.9397 14.1774 15.9482 13.1859C14.337 11.6987 12.6018 9.8396 8.63583 9.8396Z" fill="url(#paint0_linear_30_1112)"/>
</g>
<defs>
<linearGradient id="paint0_linear_30_1112" x1="-88.1348" y1="611.062" x2="2655.45" y2="2190.47" gradientUnits="userSpaceOnUse">
<stop stop-color="#2298BD"/>
<stop offset="1" stop-color="#0ED7B5"/>
</linearGradient>
<clipPath id="clip0_30_1112">
<rect width="31.7281" height="19.0864" fill="white" transform="translate(0.703812 0.296387)"/>
</clipPath>
</defs>
</svg>
